<svg id="messages-silhouette" xmlns="http://www.w3.org/2000/svg" width="16.422" height="11.736" viewBox="0 0 16.422 11.736">
  <path id="Path_139" data-name="Path 139" d="M32.914,50.715a.922.922,0,0,0,1.212.006l6.024-6.064c.4-.406.266-.734-.306-.734h-12.6c-.572,0-.71.33-.308.737Z" transform="translate(-25.283 -43.922)" fill="#1175bb"/>
  <path id="Path_140" data-name="Path 140" d="M.724,79.826l4.1-4.192-4.1-4.152c-.4-.407-.727-.273-.727.3v7.75C0,80.1.324,80.234.724,79.826Z" transform="translate(0 -69.789)" fill="#1175bb"/>
  <path id="Path_141" data-name="Path 141" d="M27.134,176.189H39.64c.572,0,.711-.332.312-.74l-4.079-4.177-.91.917a2.247,2.247,0,0,1-3.1-.007l-.925-.937-4.113,4.2C26.423,175.857,26.562,176.189,27.134,176.189Z" transform="translate(-25.176 -164.453)" fill="#1175bb"/>
  <path id="Path_142" data-name="Path 142" d="M222.928,81.315V73.668c0-.572-.327-.706-.73-.3l-4.055,4.082,4.062,4.16C222.6,82.019,222.928,81.887,222.928,81.315Z" transform="translate(-206.506 -71.575)" fill="#1175bb"/>
</svg>
