<svg id="messages-silhouette" xmlns="http://www.w3.org/2000/svg" width="20.559" height="14.692" viewBox="0 0 20.559 14.692">
  <path id="Path_139" data-name="Path 139" d="M34.477,52.426a1.154,1.154,0,0,0,1.518.007l7.541-7.592c.5-.508.333-.919-.383-.919H27.381c-.716,0-.888.413-.386.922Z" transform="translate(-24.924 -43.922)" fill="#3b424f"/>
  <path id="Path_140" data-name="Path 140" d="M.906,81.987l5.133-5.248-5.128-5.2C.408,71.032,0,71.2,0,71.915v9.7C0,82.333.406,82.5.906,81.987Z" transform="translate(0 -69.422)" fill="#3b424f"/>
  <path id="Path_141" data-name="Path 141" d="M27.27,177.434H42.926c.716,0,.891-.415.391-.927l-5.106-5.229-1.139,1.149a2.813,2.813,0,0,1-3.885-.008l-1.158-1.174-5.149,5.263C26.38,177.019,26.554,177.434,27.27,177.434Z" transform="translate(-24.819 -162.742)" fill="#3b424f"/>
  <path id="Path_142" data-name="Path 142" d="M224.133,83.376V73.8c0-.716-.409-.884-.913-.377l-5.077,5.11,5.085,5.208C223.728,84.257,224.133,84.092,224.133,83.376Z" transform="translate(-203.574 -71.182)" fill="#3b424f"/>
</svg>
