<svg id="Component_2_1" data-name="Component 2 – 1" xmlns="http://www.w3.org/2000/svg" width="103.002" height="102.239" viewBox="0 0 103.002 102.239">
  <g id="Group_166" data-name="Group 166">
    <g id="Group_165" data-name="Group 165">
      <g id="Group_164" data-name="Group 164">
        <g id="Group_163" data-name="Group 163">
          <g id="Group_162" data-name="Group 162">
            <g id="Group_161" data-name="Group 161">
              <g id="Group_160" data-name="Group 160">
                <g id="Group_159" data-name="Group 159">
                  <g id="Group_148" data-name="Group 148" transform="translate(0 3.27)">
                    <path id="Path_58" data-name="Path 58" d="M3257.8,1158.918h90.032a2.4,2.4,0,0,1,2.4,2.4V1172H3255.4v-10.681a2.4,2.4,0,0,1,2.4-2.4Z" transform="translate(-3253.763 -1157.282)" fill="#ff5856"/>
                    <g id="Group_147" data-name="Group 147">
                      <path id="Path_59" data-name="Path 59" d="M3348.485,1170.255h-98.1v-9.81a6.547,6.547,0,0,1,6.54-6.54h85.019a6.547,6.547,0,0,1,6.54,6.54Zm-94.829-3.27h91.558v-6.541a3.273,3.273,0,0,0-3.27-3.269h-85.019a3.273,3.273,0,0,0-3.27,3.269Z" transform="translate(-3250.387 -1153.905)" fill="#3b424f"/>
                    </g>
                  </g>
                  <g id="Group_150" data-name="Group 150" transform="translate(0 16.35)">
                    <path id="Path_60" data-name="Path 60" d="M3350.226,1199v70.3a4.9,4.9,0,0,1-4.9,4.9H3260.3a4.9,4.9,0,0,1-4.9-4.9V1199Z" transform="translate(-3253.763 -1197.369)" fill="#d6e0ef"/>
                    <g id="Group_149" data-name="Group 149">
                      <path id="Path_61" data-name="Path 61" d="M3341.945,1272.473h-85.019a6.547,6.547,0,0,1-6.54-6.54v-71.938h98.1v71.938A6.548,6.548,0,0,1,3341.945,1272.473Zm-88.289-75.209v68.669a3.273,3.273,0,0,0,3.27,3.27h85.019a3.273,3.273,0,0,0,3.27-3.27v-68.669Z" transform="translate(-3250.387 -1193.994)" fill="#3b424f"/>
                    </g>
                  </g>
                  <g id="Group_151" data-name="Group 151" transform="translate(81.748)">
                    <path id="Path_62" data-name="Path 62" d="M3505.945,1148.9v0Z" transform="translate(-3504.31 -1147.26)" fill="#fff"/>
                    <rect id="Rectangle_153" data-name="Rectangle 153" width="3.27" height="9.809" fill="#3b424f"/>
                  </g>
                  <g id="Group_152" data-name="Group 152" transform="translate(75.209)">
                    <path id="Path_63" data-name="Path 63" d="M3485.9,1148.9v0Z" transform="translate(-3484.267 -1147.26)" fill="#fff"/>
                    <rect id="Rectangle_154" data-name="Rectangle 154" width="3.269" height="9.809" fill="#3b424f"/>
                  </g>
                  <g id="Group_153" data-name="Group 153" transform="translate(68.669)">
                    <path id="Path_64" data-name="Path 64" d="M3465.858,1148.9v0Z" transform="translate(-3464.223 -1147.26)" fill="#fff"/>
                    <rect id="Rectangle_155" data-name="Rectangle 155" width="3.269" height="9.809" fill="#3b424f"/>
                  </g>
                  <g id="Group_154" data-name="Group 154" transform="translate(62.129)">
                    <path id="Path_65" data-name="Path 65" d="M3445.815,1148.9v0Z" transform="translate(-3444.18 -1147.26)" fill="#fff"/>
                    <rect id="Rectangle_156" data-name="Rectangle 156" width="3.269" height="9.809" fill="#3b424f"/>
                  </g>
                  <g id="Group_155" data-name="Group 155" transform="translate(32.699)">
                    <path id="Path_66" data-name="Path 66" d="M3355.618,1148.9v0Z" transform="translate(-3353.982 -1147.26)" fill="#fff"/>
                    <rect id="Rectangle_157" data-name="Rectangle 157" width="3.27" height="9.809" fill="#3b424f"/>
                  </g>
                  <g id="Group_156" data-name="Group 156" transform="translate(19.62)">
                    <path id="Path_67" data-name="Path 67" d="M3315.529,1148.9v0Z" transform="translate(-3313.894 -1147.26)" fill="#fff"/>
                    <rect id="Rectangle_158" data-name="Rectangle 158" width="3.27" height="9.809" fill="#3b424f"/>
                  </g>
                  <g id="Group_157" data-name="Group 157" transform="translate(26.159)">
                    <path id="Path_68" data-name="Path 68" d="M3335.572,1148.9v0Z" transform="translate(-3333.937 -1147.26)" fill="#fff"/>
                    <rect id="Rectangle_159" data-name="Rectangle 159" width="3.27" height="9.809" fill="#3b424f"/>
                  </g>
                  <g id="Group_158" data-name="Group 158" transform="translate(13.08)">
                    <path id="Path_69" data-name="Path 69" d="M3295.485,1148.9v0Z" transform="translate(-3293.85 -1147.26)" fill="#fff"/>
                    <rect id="Rectangle_160" data-name="Rectangle 160" width="3.269" height="9.809" fill="#3b424f"/>
                  </g>
                </g>
              </g>
            </g>
          </g>
        </g>
      </g>
    </g>
  </g>
  <g id="Group_186" data-name="Group 186" transform="translate(11.444 29.429)">
    <g id="Group_174" data-name="Group 174">
      <g id="Group_167" data-name="Group 167">
        <rect id="Rectangle_161" data-name="Rectangle 161" width="6.541" height="3.27" fill="#3b424f"/>
      </g>
      <g id="Group_168" data-name="Group 168" transform="translate(11.446)">
        <rect id="Rectangle_162" data-name="Rectangle 162" width="6.54" height="3.27" fill="#3b424f"/>
      </g>
      <g id="Group_169" data-name="Group 169" transform="translate(22.89)">
        <rect id="Rectangle_163" data-name="Rectangle 163" width="6.54" height="3.27" fill="#3b424f"/>
      </g>
      <g id="Group_170" data-name="Group 170" transform="translate(34.335)">
        <rect id="Rectangle_164" data-name="Rectangle 164" width="6.54" height="3.27" fill="#3b424f"/>
      </g>
      <g id="Group_171" data-name="Group 171" transform="translate(45.78)">
        <rect id="Rectangle_165" data-name="Rectangle 165" width="6.54" height="3.27" fill="#3b424f"/>
      </g>
      <g id="Group_172" data-name="Group 172" transform="translate(57.225)">
        <rect id="Rectangle_166" data-name="Rectangle 166" width="6.54" height="3.27" fill="#3b424f"/>
      </g>
      <g id="Group_173" data-name="Group 173" transform="translate(68.669)">
        <rect id="Rectangle_167" data-name="Rectangle 167" width="6.54" height="3.27" fill="#3b424f"/>
      </g>
    </g>
    <g id="Group_178" data-name="Group 178" transform="translate(0 14.715)">
      <g id="Group_175" data-name="Group 175">
        <rect id="Rectangle_168" data-name="Rectangle 168" width="6.541" height="3.27" fill="#3b424f"/>
      </g>
      <g id="Group_176" data-name="Group 176" transform="translate(11.446)">
        <rect id="Rectangle_169" data-name="Rectangle 169" width="6.54" height="3.27" fill="#3b424f"/>
      </g>
      <g id="Group_177" data-name="Group 177" transform="translate(22.89)">
        <rect id="Rectangle_170" data-name="Rectangle 170" width="6.54" height="3.27" fill="#3b424f"/>
      </g>
    </g>
    <g id="Group_182" data-name="Group 182" transform="translate(0 29.429)">
      <g id="Group_179" data-name="Group 179">
        <rect id="Rectangle_171" data-name="Rectangle 171" width="6.541" height="3.27" fill="#3b424f"/>
      </g>
      <g id="Group_180" data-name="Group 180" transform="translate(11.446)">
        <rect id="Rectangle_172" data-name="Rectangle 172" width="6.54" height="3.27" fill="#3b424f"/>
      </g>
      <g id="Group_181" data-name="Group 181" transform="translate(22.89)">
        <rect id="Rectangle_173" data-name="Rectangle 173" width="6.54" height="3.27" fill="#3b424f"/>
      </g>
    </g>
    <g id="Group_185" data-name="Group 185" transform="translate(0 44.144)">
      <g id="Group_183" data-name="Group 183">
        <rect id="Rectangle_174" data-name="Rectangle 174" width="6.541" height="3.269" fill="#3b424f"/>
      </g>
      <g id="Group_184" data-name="Group 184" transform="translate(11.446)">
        <rect id="Rectangle_175" data-name="Rectangle 175" width="6.54" height="3.269" fill="#3b424f"/>
      </g>
    </g>
  </g>
  <g id="Group_189" data-name="Group 189" transform="translate(67.033 69.54)">
    <g id="Group_188" data-name="Group 188">
      <rect id="Rectangle_176" data-name="Rectangle 176" width="32.7" height="29.429" transform="translate(1.635 1.635)" fill="#fff"/>
      <g id="Group_187" data-name="Group 187">
        <path id="Path_70" data-name="Path 70" d="M3491.8,1389.714h-35.969v-32.7H3491.8Zm-32.7-3.27h29.429v-26.159H3459.1Z" transform="translate(-3455.835 -1357.014)" fill="#3b424f"/>
      </g>
    </g>
  </g>
  <g id="Group_191" data-name="Group 191" transform="translate(34.334 69.54)">
    <rect id="Rectangle_177" data-name="Rectangle 177" width="32.7" height="29.429" transform="translate(1.635 1.635)" fill="#fff"/>
    <g id="Group_190" data-name="Group 190">
      <path id="Path_71" data-name="Path 71" d="M3391.584,1389.714h-35.969v-32.7h35.969Zm-32.7-3.27h29.43v-26.159h-29.43Z" transform="translate(-3355.615 -1357.014)" fill="#3b424f"/>
    </g>
  </g>
  <g id="Group_195" data-name="Group 195" transform="translate(53.953 40.111)">
    <g id="Group_194" data-name="Group 194">
      <g id="Group_193" data-name="Group 193">
        <rect id="Rectangle_178" data-name="Rectangle 178" width="32.699" height="29.429" transform="translate(1.636 1.635)" fill="#fff"/>
        <g id="Group_192" data-name="Group 192">
          <path id="Path_72" data-name="Path 72" d="M3451.715,1299.517h-35.97v-32.7h35.97Zm-32.7-3.27h29.43v-26.16h-29.43Z" transform="translate(-3415.745 -1266.818)" fill="#3b424f"/>
        </g>
      </g>
    </g>
  </g>
  <g id="Group_196" data-name="Group 196" transform="translate(60.299 47.884)">
    <rect id="Rectangle_179" data-name="Rectangle 179" width="23.343" height="3.269" fill="#3b424f"/>
  </g>
  <g id="Group_197" data-name="Group 197" transform="translate(60.299 54.827)">
    <rect id="Rectangle_180" data-name="Rectangle 180" width="23.343" height="3.269" fill="#3b424f"/>
  </g>
  <g id="Group_198" data-name="Group 198" transform="translate(60.299 61.778)">
    <rect id="Rectangle_181" data-name="Rectangle 181" width="14.772" height="3.269" fill="#3b424f"/>
  </g>
  <g id="Group_199" data-name="Group 199" transform="translate(40.614 77.373)">
    <rect id="Rectangle_182" data-name="Rectangle 182" width="23.343" height="3.269" fill="#3b424f"/>
  </g>
  <g id="Group_200" data-name="Group 200" transform="translate(40.614 84.316)">
    <rect id="Rectangle_183" data-name="Rectangle 183" width="23.343" height="3.269" fill="#3b424f"/>
  </g>
  <g id="Group_201" data-name="Group 201" transform="translate(40.614 91.267)">
    <rect id="Rectangle_184" data-name="Rectangle 184" width="14.772" height="3.269" fill="#3b424f"/>
  </g>
  <g id="Group_202" data-name="Group 202" transform="translate(73.573 77.369)">
    <rect id="Rectangle_185" data-name="Rectangle 185" width="23.343" height="3.269" fill="#3b424f"/>
  </g>
  <g id="Group_203" data-name="Group 203" transform="translate(73.573 84.312)">
    <rect id="Rectangle_186" data-name="Rectangle 186" width="23.343" height="3.269" fill="#3b424f"/>
  </g>
  <g id="Group_204" data-name="Group 204" transform="translate(73.573 91.263)">
    <rect id="Rectangle_187" data-name="Rectangle 187" width="14.772" height="3.269" fill="#3b424f"/>
  </g>
</svg>
