<svg id="Component_4_1" data-name="Component 4 – 1" xmlns="http://www.w3.org/2000/svg" width="104.638" height="104.637" viewBox="0 0 104.638 104.637">
  <g id="Group_119" data-name="Group 119" transform="translate(0 14.714)">
    <g id="Group_108" data-name="Group 108">
      <g id="Group_107" data-name="Group 107">
        <g id="Group_98" data-name="Group 98" transform="translate(0 6.54)">
          <g id="Group_97" data-name="Group 97">
            <rect id="Rectangle_137" data-name="Rectangle 137" width="101.368" height="53.954" transform="translate(1.636 1.635)" fill="#fff"/>
            <g id="Group_96" data-name="Group 96">
              <path id="Path_35" data-name="Path 35" d="M3375.068,2088.727H3270.43V2031.5h104.638Zm-101.368-3.269h98.1v-50.685h-98.1Z" transform="translate(-3270.43 -2031.503)" fill="#3b424f"/>
            </g>
          </g>
        </g>
        <g id="Group_106" data-name="Group 106">
          <g id="Group_99" data-name="Group 99" transform="translate(32.7 86.653)">
            <path id="Path_36" data-name="Path 36" d="M3375.66,2282.05h0Z" transform="translate(-3374.025 -2280.415)" fill="#b0b0b0"/>
            <rect id="Rectangle_138" data-name="Rectangle 138" width="39.239" height="3.27" fill="#3b424f"/>
          </g>
          <g id="Group_101" data-name="Group 101" transform="translate(0 60.494)">
            <path id="Path_37" data-name="Path 37" d="M3275.443,2208.416v-6.54h101.368v6.54a6.54,6.54,0,0,1-6.54,6.54h-88.289A6.54,6.54,0,0,1,3275.443,2208.416Z" transform="translate(-3273.807 -2200.241)" fill="#d6e0ef"/>
            <g id="Group_100" data-name="Group 100">
              <path id="Path_38" data-name="Path 38" d="M3366.894,2213.215h-88.289a8.184,8.184,0,0,1-8.175-8.175v-8.174h104.638v8.174A8.184,8.184,0,0,1,3366.894,2213.215Zm-93.194-13.08v4.9a4.91,4.91,0,0,0,4.905,4.905h88.289a4.91,4.91,0,0,0,4.9-4.905v-4.9Z" transform="translate(-3270.43 -2196.866)" fill="#3b424f"/>
            </g>
          </g>
          <g id="Group_103" data-name="Group 103" transform="translate(33.658 73.574)">
            <path id="Path_39" data-name="Path 39" d="M3415.112,2255.042h-29.429c3.27-3.27,4.9-8.175,4.9-13.08h19.62C3410.208,2246.868,3411.843,2251.773,3415.112,2255.042Z" transform="translate(-3381.736 -2240.328)" fill="#d6e0ef"/>
            <g id="Group_102" data-name="Group 102">
              <path id="Path_40" data-name="Path 40" d="M3410.91,2253.3h-37.323l2.791-2.792a16.846,16.846,0,0,0,4.426-11.924v-1.635h22.89v1.635a16.844,16.844,0,0,0,4.425,11.924Zm-29.99-3.27h22.657a20.929,20.929,0,0,1-3.1-9.81h-16.462A20.907,20.907,0,0,1,3380.92,2250.032Z" transform="translate(-3373.587 -2236.953)" fill="#3b424f"/>
            </g>
          </g>
          <g id="Group_104" data-name="Group 104" transform="translate(50.684 67.034)">
            <path id="Path_41" data-name="Path 41" d="M3425.77,2220.178v-3.27h3.271v3.27Z" transform="translate(-3425.77 -2216.909)" fill="#3b424f"/>
          </g>
          <g id="Group_105" data-name="Group 105">
            <path id="Path_42" data-name="Path 42" d="M3370.271,2016.47c3.611,0,6.54,1.635,6.54,4.9v1.635H3275.443v-1.635c0-3.27,2.927-4.9,6.54-4.9h88.289Z" transform="translate(-3273.807 -2014.835)" fill="#d6e0ef"/>
            <path id="Path_43" data-name="Path 43" d="M3375.068,2021.269H3270.43V2018c0-3.912,3.286-6.54,8.175-6.54h39.239v3.269h-39.239c-1.15,0-4.905.237-4.905,3.27h98.1c0-3.034-3.753-3.27-4.9-3.27h-1.636v-3.269h1.636c4.888,0,8.174,2.627,8.174,6.54Z" transform="translate(-3270.43 -2011.46)" fill="#3b424f"/>
          </g>
        </g>
      </g>
    </g>
    <g id="Group_113" data-name="Group 113" transform="translate(58.859 37.604)">
      <g id="Group_110" data-name="Group 110">
        <path id="Path_44" data-name="Path 44" d="M3455.836,2131.723h0Z" transform="translate(-3454.201 -2130.087)" fill="#fff"/>
        <g id="Group_109" data-name="Group 109">
          <path id="Path_45" data-name="Path 45" d="M3463.906,2129.98v-3.27h3.27v3.27Zm-6.54,0v-3.27h3.27v3.27Zm-6.54,0v-3.27h3.27v3.27Z" transform="translate(-3450.826 -2126.71)" fill="#3b424f"/>
        </g>
      </g>
      <g id="Group_111" data-name="Group 111" transform="translate(0 6.541)">
        <rect id="Rectangle_139" data-name="Rectangle 139" width="16.35" height="3.269" fill="#3b424f"/>
      </g>
      <g id="Group_112" data-name="Group 112" transform="translate(0 13.08)">
        <rect id="Rectangle_140" data-name="Rectangle 140" width="11.445" height="3.269" fill="#3b424f"/>
      </g>
    </g>
    <g id="Group_118" data-name="Group 118" transform="translate(80.114 37.604)">
      <g id="Group_114" data-name="Group 114" transform="translate(0)">
        <rect id="Rectangle_141" data-name="Rectangle 141" width="16.35" height="3.27" fill="#3b424f"/>
      </g>
      <g id="Group_116" data-name="Group 116" transform="translate(0 6.541)">
        <g id="Group_115" data-name="Group 115">
          <path id="Path_46" data-name="Path 46" d="M3532.319,2150.025h-4.905v-3.269h4.905Zm-8.175,0h-8.175v-3.269h8.175Z" transform="translate(-3515.969 -2146.756)" fill="#3b424f"/>
        </g>
      </g>
      <g id="Group_117" data-name="Group 117" transform="translate(0 13.08)">
        <rect id="Rectangle_142" data-name="Rectangle 142" width="16.35" height="3.269" fill="#3b424f"/>
      </g>
    </g>
  </g>
  <g id="Group_131" data-name="Group 131" transform="translate(6.541 30.774)">
    <g id="Group_120" data-name="Group 120" transform="translate(6.54 23.179)">
      <rect id="Rectangle_143" data-name="Rectangle 143" width="32.7" height="14.715" transform="translate(1.635 1.635)" fill="#1175bb"/>
      <path id="Path_47" data-name="Path 47" d="M3346.489,2149.707h-3.27v-14.715h-29.43v14.715h-3.27v-17.984h35.969Z" transform="translate(-3310.52 -2131.723)" fill="#3b424f"/>
    </g>
    <g id="Group_121" data-name="Group 121" transform="translate(0 28.084)">
      <path id="Path_48" data-name="Path 48" d="M3302.026,2161.576v-9.81h-3.27a3.269,3.269,0,0,0-3.27,3.27v6.541Z" transform="translate(-3293.851 -2150.131)" fill="#d6e0ef"/>
      <path id="Path_49" data-name="Path 49" d="M3300.285,2159.836h-3.27v-9.81h-1.635a1.637,1.637,0,0,0-1.635,1.635v8.175h-3.27v-8.175a4.909,4.909,0,0,1,4.9-4.9h4.9Z" transform="translate(-3290.476 -2146.756)" fill="#3b424f"/>
    </g>
    <g id="Group_122" data-name="Group 122" transform="translate(39.239 28.084)">
      <path id="Path_50" data-name="Path 50" d="M3422.289,2161.576v-6.541a3.27,3.27,0,0,0-3.271-3.27h-3.27v9.81Z" transform="translate(-3414.114 -2150.131)" fill="#d6e0ef"/>
      <path id="Path_51" data-name="Path 51" d="M3420.548,2159.836h-3.27v-8.175a1.637,1.637,0,0,0-1.635-1.635h-1.635v9.81h-3.27v-13.08h4.9a4.91,4.91,0,0,1,4.9,4.9Z" transform="translate(-3410.739 -2146.756)" fill="#3b424f"/>
    </g>
    <g id="Group_123" data-name="Group 123" transform="translate(17.695 0)">
      <rect id="Rectangle_144" data-name="Rectangle 144" width="3.271" height="11.606" transform="translate(0 0.641) rotate(-11.308)" fill="#3b424f"/>
    </g>
    <g id="Group_124" data-name="Group 124" transform="translate(25.869)">
      <rect id="Rectangle_145" data-name="Rectangle 145" width="11.606" height="3.27" transform="translate(0 11.38) rotate(-78.679)" fill="#3b424f"/>
    </g>
    <g id="Group_126" data-name="Group 126" transform="translate(14.714 8.464)">
      <rect id="Rectangle_146" data-name="Rectangle 146" width="16.35" height="14.714" transform="translate(1.635 1.636)" fill="#d6e0ef"/>
      <g id="Group_125" data-name="Group 125">
        <path id="Path_52" data-name="Path 52" d="M3355.193,2104.607h-19.62v-17.984h19.62Zm-16.35-3.269h13.08v-11.445h-13.08Z" transform="translate(-3335.573 -2086.623)" fill="#3b424f"/>
      </g>
    </g>
    <g id="Group_128" data-name="Group 128" transform="translate(16.349 31.353)">
      <g id="Group_127" data-name="Group 127">
        <path id="Path_53" data-name="Path 53" d="M3353.664,2160.046v-3.27h3.269v3.27Zm-6.54,0v-3.27h3.27v3.27Zm-6.541,0v-3.27h3.27v3.27Z" transform="translate(-3340.583 -2156.776)" fill="#3b424f"/>
      </g>
    </g>
    <g id="Group_129" data-name="Group 129" transform="translate(27.794 15.003)">
      <rect id="Rectangle_147" data-name="Rectangle 147" width="4.905" height="3.27" fill="#3b424f"/>
    </g>
    <g id="Group_130" data-name="Group 130" transform="translate(16.349 15.003)">
      <rect id="Rectangle_148" data-name="Rectangle 148" width="4.905" height="3.27" fill="#3b424f"/>
    </g>
  </g>
  <g id="Group_139" data-name="Group 139" transform="translate(56.513)">
    <g id="Group_135" data-name="Group 135">
      <g id="Group_134" data-name="Group 134">
        <g id="Group_133" data-name="Group 133">
          <rect id="Rectangle_149" data-name="Rectangle 149" width="32.699" height="29.429" transform="translate(1.636 1.635)" fill="#fff"/>
          <g id="Group_132" data-name="Group 132">
            <path id="Path_54" data-name="Path 54" d="M3479.606,1999.065h-35.97v-32.7h35.97Zm-32.7-3.27h29.429v-26.16h-29.429Z" transform="translate(-3443.636 -1966.365)" fill="#3b424f"/>
          </g>
        </g>
      </g>
    </g>
    <g id="Group_136" data-name="Group 136" transform="translate(6.346 7.774)">
      <rect id="Rectangle_150" data-name="Rectangle 150" width="23.343" height="3.269" fill="#3b424f"/>
    </g>
    <g id="Group_137" data-name="Group 137" transform="translate(6.346 14.716)">
      <rect id="Rectangle_151" data-name="Rectangle 151" width="23.343" height="3.269" fill="#3b424f"/>
    </g>
    <g id="Group_138" data-name="Group 138" transform="translate(6.346 21.667)">
      <rect id="Rectangle_152" data-name="Rectangle 152" width="14.772" height="3.269" fill="#3b424f"/>
    </g>
  </g>
  <g id="Group_145" data-name="Group 145" transform="translate(45.78 16.348)">
    <g id="Group_142" data-name="Group 142">
      <g id="Group_141" data-name="Group 141">
        <path id="Path_55" data-name="Path 55" d="M3440.273,2033.742a12.262,12.262,0,1,1-12.262-12.262A12.263,12.263,0,0,1,3440.273,2033.742Z" transform="translate(-3414.114 -2019.845)" fill="#ff5856"/>
        <g id="Group_140" data-name="Group 140">
          <path id="Path_56" data-name="Path 56" d="M3424.636,2044.264a13.9,13.9,0,1,1,13.9-13.9A13.913,13.913,0,0,1,3424.636,2044.264Zm0-24.524a10.627,10.627,0,1,0,10.627,10.627A10.64,10.64,0,0,0,3424.636,2019.74Z" transform="translate(-3410.739 -2016.47)" fill="#3b424f"/>
        </g>
      </g>
    </g>
    <g id="Group_144" data-name="Group 144" transform="translate(5.925 9.261)">
      <g id="Group_143" data-name="Group 143">
        <path id="Path_57" data-name="Path 57" d="M3435.456,2056.551l-6.558-6.557,2.312-2.312,4.246,4.246,7.074-7.075,2.312,2.312Z" transform="translate(-3428.898 -2044.853)" fill="#3b424f"/>
      </g>
    </g>
  </g>
</svg>
