<svg id="Component_3_1" data-name="Component 3 – 1" xmlns="http://www.w3.org/2000/svg" width="104.638" height="102.828" viewBox="0 0 104.638 102.828">
  <g id="Group_48" data-name="Group 48" transform="translate(68.669 60.319)">
    <g id="Group_47" data-name="Group 47">
      <rect id="Rectangle_117" data-name="Rectangle 117" width="32.7" height="29.429" transform="translate(1.635 1.635)" fill="#fff"/>
      <g id="Group_46" data-name="Group 46">
        <path id="Path_11" data-name="Path 11" d="M3516.86,1782.918h-35.969v-32.7h35.969Zm-32.7-3.27h29.429v-26.159h-29.429Z" transform="translate(-3480.891 -1750.218)" fill="#3b424f"/>
      </g>
    </g>
  </g>
  <g id="Group_50" data-name="Group 50" transform="translate(35.969 60.319)">
    <rect id="Rectangle_118" data-name="Rectangle 118" width="32.7" height="29.429" transform="translate(1.635 1.635)" fill="#fff"/>
    <g id="Group_49" data-name="Group 49">
      <path id="Path_12" data-name="Path 12" d="M3416.641,1782.918h-35.969v-32.7h35.969Zm-32.7-3.27h29.43v-26.159h-29.43Z" transform="translate(-3380.672 -1750.218)" fill="#3b424f"/>
    </g>
  </g>
  <g id="Group_54" data-name="Group 54" transform="translate(55.588 30.89)">
    <g id="Group_53" data-name="Group 53">
      <g id="Group_52" data-name="Group 52">
        <rect id="Rectangle_119" data-name="Rectangle 119" width="32.699" height="29.429" transform="translate(1.636 1.635)" fill="#fff"/>
        <g id="Group_51" data-name="Group 51">
          <path id="Path_13" data-name="Path 13" d="M3476.772,1692.721H3440.8v-32.7h35.97Zm-32.7-3.27H3473.5v-26.16h-29.429Z" transform="translate(-3440.802 -1660.021)" fill="#3b424f"/>
        </g>
      </g>
    </g>
  </g>
  <g id="Group_55" data-name="Group 55" transform="translate(61.935 38.664)">
    <rect id="Rectangle_120" data-name="Rectangle 120" width="23.343" height="3.269" fill="#3b424f"/>
  </g>
  <g id="Group_56" data-name="Group 56" transform="translate(61.935 45.606)">
    <rect id="Rectangle_121" data-name="Rectangle 121" width="23.343" height="3.269" fill="#3b424f"/>
  </g>
  <g id="Group_57" data-name="Group 57" transform="translate(61.935 52.557)">
    <rect id="Rectangle_122" data-name="Rectangle 122" width="14.772" height="3.269" fill="#3b424f"/>
  </g>
  <g id="Group_58" data-name="Group 58" transform="translate(42.25 68.153)">
    <rect id="Rectangle_123" data-name="Rectangle 123" width="23.343" height="3.269" fill="#3b424f"/>
  </g>
  <g id="Group_59" data-name="Group 59" transform="translate(42.25 75.095)">
    <rect id="Rectangle_124" data-name="Rectangle 124" width="23.343" height="3.269" fill="#3b424f"/>
  </g>
  <g id="Group_60" data-name="Group 60" transform="translate(42.25 82.046)">
    <rect id="Rectangle_125" data-name="Rectangle 125" width="14.772" height="3.269" fill="#3b424f"/>
  </g>
  <g id="Group_61" data-name="Group 61" transform="translate(75.208 68.149)">
    <rect id="Rectangle_126" data-name="Rectangle 126" width="23.343" height="3.269" fill="#3b424f"/>
  </g>
  <g id="Group_62" data-name="Group 62" transform="translate(75.208 75.091)">
    <rect id="Rectangle_127" data-name="Rectangle 127" width="23.343" height="3.269" fill="#3b424f"/>
  </g>
  <g id="Group_63" data-name="Group 63" transform="translate(75.208 82.042)">
    <rect id="Rectangle_128" data-name="Rectangle 128" width="14.772" height="3.269" fill="#3b424f"/>
  </g>
  <g id="Group_84" data-name="Group 84" transform="translate(0 61.954)">
    <g id="Group_65" data-name="Group 65" transform="translate(0 27.795)">
      <path id="Path_14" data-name="Path 14" d="M3275.442,1845.426v3.27a3.234,3.234,0,0,0,3.2,3.27h94.9v-6.54Z" transform="translate(-3273.807 -1843.791)" fill="#fff"/>
      <g id="Group_64" data-name="Group 64">
        <path id="Path_15" data-name="Path 15" d="M3371.8,1850.225h-96.537a4.873,4.873,0,0,1-4.832-4.9v-4.9H3371.8Zm-98.1-6.54v1.635a1.6,1.6,0,0,0,1.562,1.635h93.266v-3.27Z" transform="translate(-3270.431 -1840.416)" fill="#3b424f"/>
      </g>
    </g>
    <g id="Group_83" data-name="Group 83">
      <g id="Group_82" data-name="Group 82">
        <g id="Group_77" data-name="Group 77">
          <g id="Group_76" data-name="Group 76">
            <g id="Group_67" data-name="Group 67">
              <path id="Path_16" data-name="Path 16" d="M3277.077,1766.78s1.636-6.54,4.9-6.54h19.62v27.794h-26.16v-13.08h14.715v-8.175Z" transform="translate(-3273.807 -1758.605)" fill="#ff5856"/>
              <g id="Group_66" data-name="Group 66">
                <path id="Path_17" data-name="Path 17" d="M3299.86,1786.293h-29.429v-16.349h14.714v-4.905h-13.539l.51-2.031c.324-1.3,2.163-7.778,6.49-7.778h21.255Zm-26.16-3.269h22.89V1758.5h-17.986c-.9,0-1.921,1.579-2.631,3.27h12.441v11.445H3273.7Z" transform="translate(-3270.431 -1755.229)" fill="#3b424f"/>
              </g>
            </g>
            <g id="Group_69" data-name="Group 69" transform="translate(0.359 6.54)">
              <path id="Path_18" data-name="Path 18" d="M3290.9,1788.458h-12.721a1.635,1.635,0,0,1-1.6-1.955l1.244-6.219H3290.9Z" transform="translate(-3274.906 -1778.648)" fill="#d6e0ef"/>
              <g id="Group_68" data-name="Group 68">
                <path id="Path_19" data-name="Path 19" d="M3289.156,1786.718H3274.8a3.27,3.27,0,0,1-3.206-3.912l1.507-7.532h16.054Zm-13.375-8.176-.98,4.905h11.085v-4.905Z" transform="translate(-3271.53 -1775.273)" fill="#3b424f"/>
              </g>
            </g>
            <g id="Group_71" data-name="Group 71" transform="translate(6.54 26.159)">
              <path id="Path_20" data-name="Path 20" d="M3295.485,1846.138a5.722,5.722,0,1,1,5.723,5.723A5.722,5.722,0,0,1,3295.485,1846.138Z" transform="translate(-3293.85 -1838.78)" fill="#1175bb"/>
              <g id="Group_70" data-name="Group 70">
                <path id="Path_21" data-name="Path 21" d="M3297.833,1850.118a7.358,7.358,0,1,1,7.358-7.358A7.366,7.366,0,0,1,3297.833,1850.118Zm0-11.445a4.087,4.087,0,1,0,4.087,4.087A4.092,4.092,0,0,0,3297.833,1838.673Z" transform="translate(-3290.475 -1835.403)" fill="#3b424f"/>
              </g>
            </g>
            <g id="Group_73" data-name="Group 73" transform="translate(76.844 26.159)">
              <path id="Path_22" data-name="Path 22" d="M3510.958,1846.138a5.722,5.722,0,1,1,5.722,5.723A5.722,5.722,0,0,1,3510.958,1846.138Z" transform="translate(-3509.323 -1838.78)" fill="#1175bb"/>
              <g id="Group_72" data-name="Group 72">
                <path id="Path_23" data-name="Path 23" d="M3513.3,1850.118a7.358,7.358,0,1,1,7.357-7.358A7.365,7.365,0,0,1,3513.3,1850.118Zm0-11.445a4.087,4.087,0,1,0,4.088,4.087A4.092,4.092,0,0,0,3513.3,1838.673Z" transform="translate(-3505.948 -1835.403)" fill="#3b424f"/>
              </g>
            </g>
            <g id="Group_75" data-name="Group 75" transform="translate(65.398 26.159)">
              <path id="Path_24" data-name="Path 24" d="M3475.881,1846.138a5.722,5.722,0,1,1,5.722,5.723A5.722,5.722,0,0,1,3475.881,1846.138Z" transform="translate(-3474.245 -1838.78)" fill="#1175bb"/>
              <g id="Group_74" data-name="Group 74">
                <path id="Path_25" data-name="Path 25" d="M3478.226,1850.118a7.358,7.358,0,1,1,7.357-7.358A7.366,7.366,0,0,1,3478.226,1850.118Zm0-11.445a4.087,4.087,0,1,0,4.088,4.087A4.092,4.092,0,0,0,3478.226,1838.673Z" transform="translate(-3470.868 -1835.403)" fill="#3b424f"/>
              </g>
            </g>
          </g>
        </g>
        <g id="Group_79" data-name="Group 79" transform="translate(26.16 19.619)">
          <rect id="Rectangle_129" data-name="Rectangle 129" width="9.81" height="8.175" transform="translate(1.635 1.635)" fill="#1175bb"/>
          <g id="Group_78" data-name="Group 78">
            <path id="Path_26" data-name="Path 26" d="M3363.688,1826.8h-13.08V1815.36h13.08Zm-9.81-3.269h6.54v-4.9h-6.54Z" transform="translate(-3350.608 -1815.36)" fill="#3b424f"/>
          </g>
        </g>
        <g id="Group_81" data-name="Group 81" transform="translate(24.524 26.159)">
          <rect id="Rectangle_130" data-name="Rectangle 130" width="16.349" height="9.809" transform="translate(1.636 1.636)" fill="#d6e0ef"/>
          <g id="Group_80" data-name="Group 80">
            <path id="Path_27" data-name="Path 27" d="M3365.215,1848.483h-19.62V1835.4h19.62Zm-16.35-3.27h13.08v-6.54h-13.08Z" transform="translate(-3345.595 -1835.403)" fill="#3b424f"/>
          </g>
        </g>
      </g>
    </g>
  </g>
  <g id="Group_94" data-name="Group 94" transform="translate(0.498)">
    <g id="Group_86" data-name="Group 86" transform="translate(2.908)">
      <path id="Path_28" data-name="Path 28" d="M3285.465,1615.465a20.587,20.587,0,1,1,20.587,20.587A20.588,20.588,0,0,1,3285.465,1615.465Z" transform="translate(-3283.749 -1593.162)" fill="#d6e0ef"/>
      <g id="Group_85" data-name="Group 85">
        <path id="Path_29" data-name="Path 29" d="M3302.755,1634.473a22.3,22.3,0,1,1,22.3-22.3A22.329,22.329,0,0,1,3302.755,1634.473Zm0-41.175a18.872,18.872,0,1,0,18.872,18.871A18.893,18.893,0,0,0,3302.755,1593.3Z" transform="translate(-3280.452 -1589.867)" fill="#3b424f"/>
      </g>
    </g>
    <g id="Group_93" data-name="Group 93" transform="translate(0 10.294)">
      <g id="Group_91" data-name="Group 91">
        <g id="Group_88" data-name="Group 88">
          <path id="Path_30" data-name="Path 30" d="M3280.452,1635.237s14.092-10.294,22.3-10.294,22.3,10.294,22.3,10.294-14.091,10.294-22.3,10.294S3280.452,1635.237,3280.452,1635.237Z" transform="translate(-3277.544 -1623.228)" fill="#fff"/>
          <g id="Group_87" data-name="Group 87">
            <path id="Path_31" data-name="Path 31" d="M3297.17,1643.952c-8.672,0-22.722-10.19-23.315-10.624l-1.9-1.385,1.9-1.386c.593-.433,14.643-10.624,23.315-10.624s22.722,10.19,23.314,10.624l1.9,1.386-1.9,1.385C3319.891,1633.762,3305.842,1643.952,3297.17,1643.952Zm-19.289-12.009c4.084,2.738,13.476,8.577,19.289,8.577s15.2-5.839,19.289-8.577c-4.085-2.739-13.477-8.579-19.289-8.579S3281.965,1629.2,3277.881,1631.943Z" transform="translate(-3271.958 -1619.933)" fill="#3b424f"/>
          </g>
        </g>
        <g id="Group_90" data-name="Group 90" transform="translate(13.202)">
          <circle id="Ellipse_1" data-name="Ellipse 1" cx="10.294" cy="10.294" r="10.294" transform="translate(1.715 1.715)" fill="#1175bb"/>
          <g id="Group_89" data-name="Group 89">
            <path id="Path_32" data-name="Path 32" d="M3322.527,1643.952a12.009,12.009,0,1,1,12.01-12.009A12.024,12.024,0,0,1,3322.527,1643.952Zm0-20.588a8.578,8.578,0,1,0,8.579,8.579A8.588,8.588,0,0,0,3322.527,1623.364Z" transform="translate(-3310.518 -1619.933)" fill="#3b424f"/>
          </g>
        </g>
      </g>
      <g id="Group_92" data-name="Group 92" transform="translate(20.064 6.863)">
        <path id="Path_33" data-name="Path 33" d="M3335.575,1648.419a3.431,3.431,0,0,1,3.43-3.432Z" transform="translate(-3333.859 -1643.272)" fill="#60a4eb"/>
        <path id="Path_34" data-name="Path 34" d="M3333.994,1646.839h-3.432v-1.715a5.153,5.153,0,0,1,5.147-5.147h1.716v3.431h-1.716a1.717,1.717,0,0,0-1.715,1.716Z" transform="translate(-3330.562 -1639.977)" fill="#3b424f"/>
      </g>
    </g>
  </g>
</svg>
