<svg id="Component_1_1" data-name="Component 1 – 1" xmlns="http://www.w3.org/2000/svg" width="104.638" height="104.642" viewBox="0 0 104.638 104.642">
  <g id="Group_45" data-name="Group 45">
    <g id="Group_9" data-name="Group 9" transform="translate(46.737)">
      <g id="Group_8" data-name="Group 8">
        <g id="Group_6" data-name="Group 6" transform="translate(18.1)">
          <g id="Group_2" data-name="Group 2">
            <path id="Path_1" data-name="Path 1" d="M3469.075,724.844l-16.2-16.2-6.911-.032-6.878,6.877.033,6.911,16.2,16.2Z" transform="translate(-3437.449 -706.973)" fill="#ff5856"/>
            <g id="Group_1" data-name="Group 1">
              <path id="Path_2" data-name="Path 2" d="M3451.94,737.527,3434.107,719.7l-.038-8.265,7.841-7.843,8.264.04,17.833,17.832Zm-14.57-19.192,14.57,14.568,11.443-11.443-14.57-14.568-5.556-.027-5.913,5.914Z" transform="translate(-3434.069 -703.589)" fill="#3b424f"/>
            </g>
          </g>
          <g id="Group_3" data-name="Group 3" transform="translate(6.257 10.844)">
            <rect id="Rectangle_95" data-name="Rectangle 95" width="3.27" height="16.361" transform="translate(0 2.312) rotate(-44.998)" fill="#3b424f"/>
          </g>
          <g id="Group_5" data-name="Group 5" transform="translate(10.846 6.248)">
            <g id="Group_4" data-name="Group 4">
              <path id="Path_3" data-name="Path 3" d="M3476.547,734.314l2.322-2.322,2.305,2.322-2.305,2.305Zm-4.627-4.628,2.323-2.321,2.3,2.321-2.3,2.305Zm-4.609-4.625,2.305-2.323,2.322,2.323-2.322,2.3Z" transform="translate(-3467.31 -722.738)" fill="#3b424f"/>
            </g>
          </g>
        </g>
        <g id="Group_7" data-name="Group 7" transform="translate(0 0.507)">
          <path id="Path_4" data-name="Path 4" d="M3380.949,721.666l-2.354-2.27,10.482-10.872c5.466-5.467,10.691-3.126,12.693-1.124l1.156,1.156-2.313,2.312-1.149-1.149c-.378-.365-3.684-3.275-8.054,1.1Z" transform="translate(-3378.596 -705.143)" fill="#3b424f"/>
        </g>
      </g>
    </g>
    <g id="Group_26" data-name="Group 26" transform="translate(0 9.813)">
      <g id="Group_24" data-name="Group 24">
        <g id="Group_11" data-name="Group 11">
          <path id="Path_5" data-name="Path 5" d="M3240.365,774.645a35.969,35.969,0,1,1,35.969,35.969A35.969,35.969,0,0,1,3240.365,774.645Z" transform="translate(-3238.729 -737.04)" fill="#d6e0ef"/>
          <g id="Group_10" data-name="Group 10">
            <path id="Path_6" data-name="Path 6" d="M3272.957,808.873a37.6,37.6,0,1,1,37.6-37.6A37.646,37.646,0,0,1,3272.957,808.873Zm0-71.939a34.335,34.335,0,1,0,34.334,34.335A34.374,34.374,0,0,0,3272.957,736.934Z" transform="translate(-3235.352 -733.665)" fill="#3b424f"/>
          </g>
        </g>
        <g id="Group_15" data-name="Group 15" transform="translate(6.54 6.54)">
          <g id="Group_12" data-name="Group 12" transform="translate(29.43)">
            <rect id="Rectangle_96" data-name="Rectangle 96" width="3.269" height="8.174" fill="#3b424f"/>
          </g>
          <g id="Group_13" data-name="Group 13" transform="translate(29.43 52.319)">
            <rect id="Rectangle_97" data-name="Rectangle 97" width="3.269" height="9.81" fill="#3b424f"/>
          </g>
          <g id="Group_14" data-name="Group 14" transform="translate(0 29.429)">
            <rect id="Rectangle_98" data-name="Rectangle 98" width="8.175" height="3.27" fill="#3b424f"/>
          </g>
        </g>
        <g id="Group_19" data-name="Group 19" transform="translate(9.883 9.883)">
          <g id="Group_16" data-name="Group 16" transform="translate(0 10.772)">
            <rect id="Rectangle_99" data-name="Rectangle 99" width="3.27" height="6.541" transform="matrix(0.5, -0.866, 0.866, 0.5, 0, 2.832)" fill="#3b424f"/>
          </g>
          <g id="Group_17" data-name="Group 17" transform="translate(38.567)">
            <rect id="Rectangle_100" data-name="Rectangle 100" width="6.541" height="3.27" transform="translate(0 5.665) rotate(-60.006)" fill="#3b424f"/>
          </g>
          <g id="Group_18" data-name="Group 18" transform="translate(10.772 48.142)">
            <rect id="Rectangle_101" data-name="Rectangle 101" width="6.541" height="3.27" transform="matrix(0.5, -0.866, 0.866, 0.5, 0, 5.664)" fill="#3b424f"/>
          </g>
        </g>
        <g id="Group_23" data-name="Group 23" transform="translate(9.883 9.883)">
          <g id="Group_20" data-name="Group 20" transform="translate(48.142 10.773)">
            <rect id="Rectangle_102" data-name="Rectangle 102" width="6.541" height="3.27" transform="matrix(0.866, -0.5, 0.5, 0.866, 0, 3.269)" fill="#3b424f"/>
          </g>
          <g id="Group_21" data-name="Group 21" transform="translate(0 38.567)">
            <rect id="Rectangle_103" data-name="Rectangle 103" width="6.541" height="3.27" transform="matrix(0.866, -0.5, 0.5, 0.866, 0, 3.269)" fill="#3b424f"/>
          </g>
          <g id="Group_22" data-name="Group 22" transform="translate(10.773)">
            <rect id="Rectangle_104" data-name="Rectangle 104" width="3.27" height="6.541" transform="translate(0 1.635) rotate(-29.999)" fill="#3b424f"/>
          </g>
        </g>
      </g>
      <g id="Group_25" data-name="Group 25" transform="translate(25.727 17.984)">
        <path id="Path_7" data-name="Path 7" d="M3327.714,810.674l-13.512-4.5,1.033-3.1,9.209,3.068V788.785h3.27Z" transform="translate(-3314.203 -788.785)" fill="#3b424f"/>
      </g>
    </g>
    <g id="Group_29" data-name="Group 29" transform="translate(68.669 71.942)">
      <g id="Group_28" data-name="Group 28">
        <rect id="Rectangle_105" data-name="Rectangle 105" width="32.7" height="29.429" transform="translate(1.635 1.635)" fill="#fff"/>
        <g id="Group_27" data-name="Group 27">
          <path id="Path_8" data-name="Path 8" d="M3481.783,956.781h-35.969v-32.7h35.969Zm-32.7-3.27h29.429V927.351h-29.429Z" transform="translate(-3445.814 -924.081)" fill="#3b424f"/>
        </g>
      </g>
    </g>
    <g id="Group_31" data-name="Group 31" transform="translate(35.97 71.942)">
      <rect id="Rectangle_106" data-name="Rectangle 106" width="32.7" height="29.429" transform="translate(1.635 1.635)" fill="#fff"/>
      <g id="Group_30" data-name="Group 30">
        <path id="Path_9" data-name="Path 9" d="M3381.563,956.781h-35.969v-32.7h35.969Zm-32.7-3.27h29.43V927.351h-29.43Z" transform="translate(-3345.594 -924.081)" fill="#3b424f"/>
      </g>
    </g>
    <g id="Group_35" data-name="Group 35" transform="translate(55.589 42.513)">
      <g id="Group_34" data-name="Group 34">
        <g id="Group_33" data-name="Group 33">
          <rect id="Rectangle_107" data-name="Rectangle 107" width="32.699" height="29.429" transform="translate(1.635 1.635)" fill="#fff"/>
          <g id="Group_32" data-name="Group 32">
            <path id="Path_10" data-name="Path 10" d="M3441.695,866.584h-35.969v-32.7h35.969Zm-32.7-3.27h29.429v-26.16H3409Z" transform="translate(-3405.725 -833.885)" fill="#3b424f"/>
          </g>
        </g>
      </g>
    </g>
    <g id="Group_36" data-name="Group 36" transform="translate(61.935 50.286)">
      <rect id="Rectangle_108" data-name="Rectangle 108" width="23.343" height="3.269" fill="#3b424f"/>
    </g>
    <g id="Group_37" data-name="Group 37" transform="translate(61.935 57.229)">
      <rect id="Rectangle_109" data-name="Rectangle 109" width="23.343" height="3.269" fill="#3b424f"/>
    </g>
    <g id="Group_38" data-name="Group 38" transform="translate(61.935 64.18)">
      <rect id="Rectangle_110" data-name="Rectangle 110" width="14.772" height="3.269" fill="#3b424f"/>
    </g>
    <g id="Group_39" data-name="Group 39" transform="translate(42.25 79.776)">
      <rect id="Rectangle_111" data-name="Rectangle 111" width="23.343" height="3.269" fill="#3b424f"/>
    </g>
    <g id="Group_40" data-name="Group 40" transform="translate(42.25 86.718)">
      <rect id="Rectangle_112" data-name="Rectangle 112" width="23.343" height="3.269" fill="#3b424f"/>
    </g>
    <g id="Group_41" data-name="Group 41" transform="translate(42.25 93.669)">
      <rect id="Rectangle_113" data-name="Rectangle 113" width="14.772" height="3.269" fill="#3b424f"/>
    </g>
    <g id="Group_42" data-name="Group 42" transform="translate(75.209 79.771)">
      <rect id="Rectangle_114" data-name="Rectangle 114" width="23.343" height="3.269" fill="#3b424f"/>
    </g>
    <g id="Group_43" data-name="Group 43" transform="translate(75.209 86.714)">
      <rect id="Rectangle_115" data-name="Rectangle 115" width="23.343" height="3.269" fill="#3b424f"/>
    </g>
    <g id="Group_44" data-name="Group 44" transform="translate(75.209 93.665)">
      <rect id="Rectangle_116" data-name="Rectangle 116" width="14.772" height="3.269" fill="#3b424f"/>
    </g>
  </g>
</svg>
