<svg id="Component_5_1" data-name="Component 5 – 1" xmlns="http://www.w3.org/2000/svg" width="121.075" height="126.994" viewBox="0 0 121.075 126.994">
  <g id="Group_358" data-name="Group 358">
    <g id="Group_325" data-name="Group 325" transform="translate(18.464)">
      <g id="Group_324" data-name="Group 324">
        <g id="Group_322" data-name="Group 322" transform="translate(7.893)">
          <g id="Group_321" data-name="Group 321">
            <path id="Path_234" data-name="Path 234" d="M2680.308,1765.693v-59.2a3.946,3.946,0,0,0-3.945-3.946h-78.932a3.947,3.947,0,0,1,3.947,3.946v76.958Z" transform="translate(-2597.431 -1700.575)" fill="#fff"/>
            <path id="Path_235" data-name="Path 235" d="M2603.351,1782.389H2599.4v-78.932a1.975,1.975,0,0,0-1.973-1.973v-3.946h78.932a5.926,5.926,0,0,1,5.919,5.919v61.172h-3.946v-61.172a1.975,1.975,0,0,0-1.973-1.973h-73.35a5.909,5.909,0,0,1,.338,1.973Z" transform="translate(-2597.431 -1697.538)" fill="#3b424f"/>
          </g>
        </g>
        <g id="Group_323" data-name="Group 323" transform="translate(0 0.002)">
          <path id="Path_236" data-name="Path 236" d="M2589.228,1706.494a3.95,3.95,0,0,0-4.61-3.892,4.093,4.093,0,0,0-3.283,4.1v25.441a3.947,3.947,0,0,1-3.947,3.947h11.84Z" transform="translate(-2577.388 -1700.577)" fill="#d6e0ef"/>
          <path id="Path_237" data-name="Path 237" d="M2591.2,1735.033h-13.812v-3.946a1.975,1.975,0,0,0,1.973-1.974v-25.441a6.085,6.085,0,0,1,4.941-6.052,5.924,5.924,0,0,1,6.9,5.84Zm-8.231-3.946h4.284V1703.46a1.975,1.975,0,0,0-2.318-1.944,2.139,2.139,0,0,0-1.628,2.156v25.441A5.914,5.914,0,0,1,2582.97,1731.087Z" transform="translate(-2577.388 -1697.543)" fill="#3b424f"/>
        </g>
      </g>
    </g>
    <g id="Group_342" data-name="Group 342" transform="translate(36.452 17.526)">
      <g id="Group_341" data-name="Group 341">
        <g id="Group_328" data-name="Group 328" transform="translate(2.668 48.514)">
          <g id="Group_326" data-name="Group 326" transform="translate(0 0)">
            <rect id="Rectangle_225" data-name="Rectangle 225" width="9.527" height="3.946" transform="matrix(0.707, -0.707, 0.707, 0.707, 0, 6.737)" fill="#3b424f"/>
          </g>
          <g id="Group_327" data-name="Group 327" transform="translate(0 0)">
            <rect id="Rectangle_226" data-name="Rectangle 226" width="3.946" height="9.527" transform="translate(0 2.79) rotate(-44.996)" fill="#3b424f"/>
          </g>
        </g>
        <g id="Group_331" data-name="Group 331" transform="translate(12.534 3.129)">
          <g id="Group_329" data-name="Group 329" transform="translate(0 0)">
            <rect id="Rectangle_227" data-name="Rectangle 227" width="9.528" height="3.946" transform="matrix(0.707, -0.707, 0.707, 0.707, 0, 6.737)" fill="#3b424f"/>
          </g>
          <g id="Group_330" data-name="Group 330" transform="translate(0 0)">
            <rect id="Rectangle_228" data-name="Rectangle 228" width="3.946" height="9.528" transform="translate(0 2.79) rotate(-45)" fill="#3b424f"/>
          </g>
        </g>
        <g id="Group_334" data-name="Group 334" transform="translate(30.293 28.782)">
          <g id="Group_332" data-name="Group 332" transform="translate(0 0)">
            <rect id="Rectangle_229" data-name="Rectangle 229" width="9.527" height="3.946" transform="translate(0 6.737) rotate(-45)" fill="#3b424f"/>
          </g>
          <g id="Group_333" data-name="Group 333" transform="translate(0 0)">
            <rect id="Rectangle_230" data-name="Rectangle 230" width="3.946" height="9.527" transform="translate(0 2.79) rotate(-44.996)" fill="#3b424f"/>
          </g>
        </g>
        <g id="Group_335" data-name="Group 335" transform="translate(14.71 43.903)">
          <path id="Path_238" data-name="Path 238" d="M2669.889,1872.779a14.7,14.7,0,0,1-7.792-2.241l-1.676-1.041,2.085-3.351,1.676,1.043a10.857,10.857,0,0,0,16.432-11.046l-.333-1.947,3.891-.665.331,1.945a14.825,14.825,0,0,1-14.614,17.3Z" transform="translate(-2660.421 -1853.532)" fill="#3b424f"/>
        </g>
        <g id="Group_336" data-name="Group 336" transform="translate(17.36 14.655)">
          <path id="Path_239" data-name="Path 239" d="M2673.925,1792.515a9.619,9.619,0,0,1-5.1-1.459l-1.676-1.042,2.086-3.349,1.675,1.042a5.735,5.735,0,0,0,8.681-5.835l-.335-1.944,3.891-.668.333,1.946a9.671,9.671,0,0,1-9.557,11.309Z" transform="translate(-2667.151 -1779.26)" fill="#3b424f"/>
        </g>
        <g id="Group_337" data-name="Group 337" transform="translate(0 1.098)">
          <path id="Path_240" data-name="Path 240" d="M2625.219,1760.659l-.95-1.73a9.68,9.68,0,0,1,3.818-13.144l1.73-.952,1.9,3.459-1.728.95a5.735,5.735,0,0,0-2.263,7.787l.951,1.729Z" transform="translate(-2623.067 -1744.833)" fill="#3b424f"/>
        </g>
        <g id="Group_338" data-name="Group 338" transform="translate(13.351 35.519)">
          <path id="Path_241" data-name="Path 241" d="M2665.928,1837.251a3.947,3.947,0,1,1-3.947,3.947A3.947,3.947,0,0,1,2665.928,1837.251Z" transform="translate(-2660.008 -1835.278)" fill="#ff5856"/>
          <path id="Path_242" data-name="Path 242" d="M2662.891,1844.081a5.92,5.92,0,1,1,5.92-5.92A5.926,5.926,0,0,1,2662.891,1844.081Zm0-7.894a1.974,1.974,0,1,0,1.973,1.974A1.975,1.975,0,0,0,2662.891,1836.187Z" transform="translate(-2656.971 -1832.241)" fill="#3b424f"/>
        </g>
        <g id="Group_339" data-name="Group 339" transform="translate(31.111)">
          <path id="Path_243" data-name="Path 243" d="M2711.028,1747.055a3.946,3.946,0,1,1-3.947,3.946A3.945,3.945,0,0,1,2711.028,1747.055Z" transform="translate(-2705.108 -1745.082)" fill="#ff5856"/>
          <path id="Path_244" data-name="Path 244" d="M2707.99,1753.883a5.919,5.919,0,1,1,5.92-5.92A5.925,5.925,0,0,1,2707.99,1753.883Zm0-7.893a1.974,1.974,0,1,0,1.974,1.973A1.975,1.975,0,0,0,2707.99,1745.99Z" transform="translate(-2702.072 -1742.044)" fill="#3b424f"/>
        </g>
        <g id="Group_340" data-name="Group 340" transform="translate(1.511 19.732)">
          <path id="Path_245" data-name="Path 245" d="M2635.864,1797.164a3.947,3.947,0,1,1-3.947,3.946A3.947,3.947,0,0,1,2635.864,1797.164Z" transform="translate(-2629.943 -1795.19)" fill="#ff5856"/>
          <path id="Path_246" data-name="Path 246" d="M2632.825,1803.992a5.92,5.92,0,1,1,5.92-5.92A5.926,5.926,0,0,1,2632.825,1803.992Zm0-7.893a1.974,1.974,0,1,0,1.973,1.973A1.975,1.975,0,0,0,2632.825,1796.1Z" transform="translate(-2626.905 -1792.152)" fill="#3b424f"/>
        </g>
      </g>
    </g>
    <g id="Group_354" data-name="Group 354" transform="translate(0 71.027)">
      <g id="Group_353" data-name="Group 353">
        <g id="Group_352" data-name="Group 352">
          <g id="Group_351" data-name="Group 351">
            <g id="Group_350" data-name="Group 350">
              <g id="Group_347" data-name="Group 347" transform="translate(9.872)">
                <g id="Group_345" data-name="Group 345">
                  <g id="Group_343" data-name="Group 343" transform="translate(60.945)">
                    <path id="Path_247" data-name="Path 247" d="M2717.422,1923.4l34.376-34.76c2.64-2.557-4.331-7.256-7.376-5.188l-25.805,22.08Z" transform="translate(-2714.631 -1880.958)" fill="#fff"/>
                    <path id="Path_248" data-name="Path 248" d="M2713.14,1923.138l-2.805-2.775L2746.1,1884.2a4.454,4.454,0,0,0-2.239-1.866,3.273,3.273,0,0,0-2.561-.339l-27.195,23.267-2.567-3,27.48-23.5c3.115-2.119,7.837.025,9.844,2.5,1.592,1.954,1.6,4.208.012,5.742Z" transform="translate(-2710.335 -1877.904)" fill="#3b424f"/>
                  </g>
                  <g id="Group_344" data-name="Group 344" transform="translate(0 2.194)">
                    <path id="Path_249" data-name="Path 249" d="M2587.391,1935.192l1.079-2.452a7.208,7.208,0,0,1,6.61-4.282l21.431,1.768,14.636-1.75a7.242,7.242,0,0,0,5.152-2.142l31.959-30.858c2.64-2.556-2.258-8.719-5.3-6.651l-27.582,21.786-34.93-9.389c-8.286-2.446-19.292,2.17-24.142,9.252l-13.78,20.6Z" transform="translate(-2559.784 -1886.464)" fill="#fff"/>
                    <path id="Path_250" data-name="Path 250" d="M2584.189,1934.8l-3.613-1.59,1.875-4.259a9.174,9.174,0,0,1,8.409-5.46h.006l21.394,1.758,14.673-1.74a5.311,5.311,0,0,0,3.75-1.557l31.99-30.892c.377-.365.038-1.51-.725-2.449-.719-.883-1.692-1.421-2.1-1.148l-28.247,22.317-35.886-9.647c-7.206-2.124-17.464,1.835-22,8.462l-14.865,22.226-3.281-2.193,14.878-22.243c5.509-8.048,17.564-12.642,26.34-10.051l33.926,9.121,26.8-21.174c2.322-1.576,5.354-.792,7.493,1.839,2.189,2.691,2.354,5.89.4,7.779l-31.96,30.862a9.262,9.262,0,0,1-6.4,2.7l-14.725,1.759-.2-.015-21.431-1.766a5.187,5.187,0,0,0-4.641,3.108Z" transform="translate(-2555.57 -1883.475)" fill="#3b424f"/>
                  </g>
                </g>
                <g id="Group_346" data-name="Group 346" transform="translate(36.187 19.225)">
                  <path id="Path_251" data-name="Path 251" d="M2673.526,1932.865l11.828,3.18a4.741,4.741,0,0,1,3.046,6.7h0a4.82,4.82,0,0,1-5.1,2.58l-23.993-3.968-5.035,2.78Z" transform="translate(-2651.593 -1930.447)" fill="#fff"/>
                  <path id="Path_252" data-name="Path 252" d="M2679.986,1943.641a6.874,6.874,0,0,1-1.135-.094l-23.316-3.858-6.162,3.4-1.908-3.453,7.361-4.065,24.669,4.081a2.876,2.876,0,0,0,3.012-1.517,2.729,2.729,0,0,0,.05-2.349,2.8,2.8,0,0,0-1.844-1.558l-13.733-3.692,1.025-3.812,13.734,3.693a6.728,6.728,0,0,1,4.419,3.754,6.656,6.656,0,0,1-.12,5.73A6.742,6.742,0,0,1,2679.986,1943.641Z" transform="translate(-2647.465 -1926.725)" fill="#3b424f"/>
                </g>
              </g>
              <g id="Group_348" data-name="Group 348" transform="translate(0 27.596)">
                <path id="Path_253" data-name="Path 253" d="M2537.3,1976.711l11.821-21.64a4,4,0,0,1,5.755-1.389l28.11,19.118-2,3.911Z" transform="translate(-2534.623 -1951.018)" fill="#1175bb"/>
                <path id="Path_254" data-name="Path 254" d="M2533.965,1976.354l-3.465-1.892,12.768-23.373a5.968,5.968,0,0,1,8.595-2.075l29.55,20.1-3.688,7.22-3.515-1.8,2.1-4.119-26.67-18.139a2,2,0,0,0-1.623-.29,1.967,1.967,0,0,0-1.284.984Z" transform="translate(-2530.5 -1947.982)" fill="#3b424f"/>
              </g>
              <g id="Group_349" data-name="Group 349" transform="translate(16.372 37.345)">
                <path id="Path_255" data-name="Path 255" d="M2572.076,1975.541l2.762-2.8,2.822,2.761-2.782,2.8Z" transform="translate(-2572.076 -1972.739)" fill="#3b424f"/>
              </g>
            </g>
          </g>
        </g>
      </g>
    </g>
    <g id="Group_355" data-name="Group 355" transform="translate(83.582 45.385)">
      <rect id="Rectangle_231" data-name="Rectangle 231" width="19.733" height="3.947" fill="#3b424f"/>
    </g>
    <g id="Group_356" data-name="Group 356" transform="translate(83.582 53.278)">
      <path id="Path_256" data-name="Path 256" d="M2747.761,1837.844h0Z" transform="translate(-2745.788 -1835.87)" fill="#fff"/>
      <path id="Path_257" data-name="Path 257" d="M2758.536,1836.779v-3.947h3.947v3.947Zm-7.893,0v-3.947h3.946v3.947Zm-7.893,0v-3.947h3.946v3.947Z" transform="translate(-2742.75 -1832.832)" fill="#3b424f"/>
    </g>
    <g id="Group_357" data-name="Group 357" transform="translate(83.582 61.171)">
      <rect id="Rectangle_232" data-name="Rectangle 232" width="13.813" height="3.946" fill="#3b424f"/>
    </g>
  </g>
  <g id="Group_359" data-name="Group 359" transform="translate(83.59 9.945)">
    <g id="Group_195" data-name="Group 195">
      <g id="Group_194" data-name="Group 194">
        <g id="Group_193" data-name="Group 193">
          <rect id="Rectangle_178" data-name="Rectangle 178" width="30.948" height="27.853" transform="translate(1.548 1.548)" fill="#fff"/>
          <g id="Group_192" data-name="Group 192">
            <path id="Path_72" data-name="Path 72" d="M2776.815,1753.741h-34.044v-30.949h34.044Zm-30.949-3.1h27.854v-24.759h-27.854Z" transform="translate(-2742.771 -1722.792)" fill="#3b424f"/>
          </g>
        </g>
      </g>
    </g>
    <g id="Group_196" data-name="Group 196" transform="translate(6.006 7.358)">
      <rect id="Rectangle_179" data-name="Rectangle 179" width="22.093" height="3.094" fill="#3b424f"/>
    </g>
    <g id="Group_197" data-name="Group 197" transform="translate(6.006 13.929)">
      <rect id="Rectangle_180" data-name="Rectangle 180" width="22.093" height="3.094" fill="#3b424f"/>
    </g>
    <g id="Group_198" data-name="Group 198" transform="translate(6.006 20.508)">
      <rect id="Rectangle_181" data-name="Rectangle 181" width="13.981" height="3.094" fill="#3b424f"/>
    </g>
  </g>
</svg>
