<svg xmlns="http://www.w3.org/2000/svg" width="73.192" height="72.89" viewBox="0 0 73.192 72.89">
  <g id="Component_1_1" data-name="Component 1 – 1" transform="translate(0)">
    <g id="Group_263" data-name="Group 263">
      <g id="Group_243" data-name="Group 243" transform="translate(1.489)">
        <g id="Group_242" data-name="Group 242">
          <rect id="Rectangle_201" data-name="Rectangle 201" width="22.742" height="20.468" transform="translate(1.137 1.137)" fill="#fff"/>
          <g id="Group_241" data-name="Group 241">
            <path id="Path_191" data-name="Path 191" d="M3881.161,906.229h-25.017V883.487h25.017Zm-22.742-2.274h20.468V885.762h-20.468Z" transform="translate(-3856.144 -883.487)" fill="#3b424f"/>
          </g>
        </g>
      </g>
      <g id="Group_244" data-name="Group 244" transform="translate(6.038 5.445)">
        <rect id="Rectangle_202" data-name="Rectangle 202" width="16.235" height="2.274" fill="#3b424f"/>
      </g>
      <g id="Group_245" data-name="Group 245" transform="translate(6.038 10.274)">
        <rect id="Rectangle_203" data-name="Rectangle 203" width="16.235" height="2.274" fill="#3b424f"/>
      </g>
      <g id="Group_246" data-name="Group 246" transform="translate(6.038 15.108)">
        <rect id="Rectangle_204" data-name="Rectangle 204" width="10.274" height="2.274" fill="#3b424f"/>
      </g>
      <g id="Group_248" data-name="Group 248" transform="translate(11.581 10.291)">
        <g id="Group_247" data-name="Group 247">
          <path id="Path_192" data-name="Path 192" d="M3937.038,982.339v-2.274h2.274v2.274Zm-4.548,0v-2.274h2.274v2.274Zm-4.548,0v-2.274h2.274v2.274Zm-4.548,0v-2.274h2.273v2.274Zm-4.549,0v-2.274h2.274v2.274Zm-4.549,0v-2.274h2.274v2.274Zm-3.638-.284-1.114-.25.5-2.218,2.218.5-.5,2.229Zm-4.525-2.116-.9-.681,1.364-1.82,1.819,1.376-1.376,1.808Zm-3.309-3.673-.592-.966,1.944-1.194.592.967h0l.591.967-1.933,1.193Zm-1.82-4.559-.239-1.114,2.218-.478.489,2.217-2.229.489Zm-.386-3.741.228-2.263,2.263.228-.228,2.263Zm.91-4.833L3902,962.1h0l.465-1.035,2.071.943-.944,2.07Zm2.468-4.286,1.615-1.6,1.6,1.6-1.6,1.615Zm3.889-3.139,2.115-.841.841,2.115-2.115.842ZM3949,954.536l1.125-.079h0l1.137-.068.147,2.275-2.274.136Zm-4.481,2.218v-2.274h2.274v2.274Zm-4.548,0v-2.274h2.274v2.274Zm-4.548,0v-2.274h2.274v2.274Zm-4.548,0v-2.274h2.274v2.274Zm-4.548,0v-2.274h2.274v2.274Zm-4.549,0v-2.274h2.274v2.274Zm-4.548,0v-2.274h2.274v2.274Zm-4.548,0v-2.274h2.274v2.274Zm40.311-2.878.99-.545h0l1-.546,1.092,1.99-1.99,1.092Zm3.389-2.3,1.422-1.774,1.773,1.422L3958.154,953Zm2.331-3.434.74-2.149,2.149.739-.74,2.149Zm1.058-4.048.023-2.274,2.273.023-.022,2.275Zm-.6-5.253-.341-1.08,2.161-.694.353,1.08h-.011l.353,1.08-2.172.694Zm-1.9-3.673-.693-.9,1.808-1.388,1.375,1.808-1.808,1.377Zm-3.047-2.718-.979-.58,1.149-1.956,1.956,1.149-1.148,1.956Zm-3.821-1.239-1.137-.113.216-2.263,2.263.216-.2,2.263Zm-5.583-.045v-2.274h2.274v2.274Zm-4.549,0v-2.274h2.274v2.274Zm-4.548,0v-2.274h2.274v2.274Zm-4.549,0v-2.274h2.275v2.274Zm-4.548,0v-2.274h2.273v2.274Zm-4.548,0v-2.274h2.274v2.274Zm-4.548,0v-2.274h2.273v2.274Z" transform="translate(-3900.616 -928.837)" fill="#3b424f"/>
        </g>
      </g>
      <g id="Group_252" data-name="Group 252" transform="translate(28.672 28.542)">
        <g id="Group_249" data-name="Group 249">
          <path id="Path_193" data-name="Path 193" d="M3984.358,1030.2h5.259l6.113,3.411V1030.2h5.686a3.411,3.411,0,0,0,3.411-3.411v-9.1a3.411,3.411,0,0,0-3.411-3.411h-17.057a3.411,3.411,0,0,0-3.411,3.411v9.1A3.411,3.411,0,0,0,3984.358,1030.2Z" transform="translate(-3979.809 -1013.139)" fill="#d6e0ef"/>
          <path id="Path_194" data-name="Path 194" d="M3992.99,1031.669l-7.545-4.211h-4.963a4.554,4.554,0,0,1-4.549-4.548v-9.1a4.554,4.554,0,0,1,4.549-4.548h17.057a4.554,4.554,0,0,1,4.548,4.548v9.1a4.554,4.554,0,0,1-4.548,4.548h-4.548Zm-12.508-20.13a2.277,2.277,0,0,0-2.274,2.274v9.1a2.277,2.277,0,0,0,2.274,2.275h5.555l4.68,2.611v-2.611h6.822a2.277,2.277,0,0,0,2.274-2.275v-9.1a2.277,2.277,0,0,0-2.274-2.274Z" transform="translate(-3975.933 -1009.265)" fill="#3b424f"/>
        </g>
        <g id="Group_250" data-name="Group 250" transform="translate(5.686 5.685)">
          <rect id="Rectangle_205" data-name="Rectangle 205" width="14.782" height="2.274" fill="#3b424f"/>
        </g>
        <g id="Group_251" data-name="Group 251" transform="translate(5.686 10.234)">
          <rect id="Rectangle_206" data-name="Rectangle 206" width="10.234" height="2.274" fill="#3b424f"/>
        </g>
      </g>
      <g id="Group_257" data-name="Group 257" transform="translate(50.446 54.695)">
        <g id="Group_253" data-name="Group 253" transform="translate(0 7.971)">
          <path id="Path_195" data-name="Path 195" d="M4097.34,1172.946v-.111c0-.126.024-.231.031-.351-.158-2.876-2.158-3.922-5.388-5.278l-4.932-2.108-4.864,2.108c-3.128,1.355-5.125,2.465-5.284,5.278.006.121.03.224.03.351v.111Z" transform="translate(-4075.764 -1163.86)" fill="#1175bb"/>
          <path id="Path_196" data-name="Path 196" d="M4092.322,1169.864v-1.248a2.645,2.645,0,0,1,.025-.345c-.1-1.976-1.261-2.8-4.684-4.235l-4.489-1.919-4.416,1.914c-3.251,1.408-4.454,2.268-4.6,4.217a3.02,3.02,0,0,1,.028.369v1.137l-2.275.111-.008-1.315c-.009-.072-.017-.145-.021-.221l0-.063,0-.063c.2-3.488,2.708-4.845,5.969-6.257l5.313-2.3,5.383,2.3c2.882,1.21,5.867,2.465,6.075,6.261l0,.063,0,.062c0,.078-.013.151-.022.224v1.137Z" transform="translate(-4071.883 -1159.641)" fill="#3b424f"/>
        </g>
        <g id="Group_256" data-name="Group 256" transform="translate(6.13 0)">
          <g id="Group_255" data-name="Group 255">
            <g id="Group_254" data-name="Group 254">
              <ellipse id="Ellipse_4" data-name="Ellipse 4" cx="4.106" cy="4.743" rx="4.106" ry="4.743" transform="translate(1.137 1.137)" fill="#fff"/>
              <path id="Path_197" data-name="Path 197" d="M4104.14,1136.276c-2.891,0-5.243-2.638-5.243-5.88s2.352-5.88,5.243-5.88,5.243,2.638,5.243,5.88S4107.03,1136.276,4104.14,1136.276Zm0-9.485c-1.637,0-2.969,1.617-2.969,3.605s1.332,3.606,2.969,3.606,2.969-1.617,2.969-3.606S4105.776,1126.79,4104.14,1126.79Z" transform="translate(-4098.897 -1124.516)" fill="#3b424f"/>
            </g>
          </g>
        </g>
      </g>
      <g id="Group_260" data-name="Group 260" transform="translate(52.722 0.114)">
        <g id="Group_258" data-name="Group 258">
          <path id="Path_198" data-name="Path 198" d="M4086.923,898.1c0,5.024,9.1,13.645,9.1,13.645s9.1-8.621,9.1-13.645a9.1,9.1,0,0,0-18.194,0Z" transform="translate(-4085.786 -887.865)" fill="#ff5856"/>
          <path id="Path_199" data-name="Path 199" d="M4092.146,909.436l-.782-.742c-.966-.917-9.451-9.112-9.451-14.471a10.234,10.234,0,1,1,20.468,0c0,5.358-8.484,13.554-9.451,14.471Zm0-23.172a7.969,7.969,0,0,0-7.959,7.96c0,3.37,5.177,9.262,7.959,12.055,2.783-2.794,7.96-8.689,7.96-12.055A7.969,7.969,0,0,0,4092.146,886.264Z" transform="translate(-4081.913 -883.989)" fill="#3b424f"/>
        </g>
        <g id="Group_259" data-name="Group 259" transform="translate(5.685 5.686)">
          <path id="Path_200" data-name="Path 200" d="M4118.8,917.467a3.411,3.411,0,1,0-3.412,3.411A3.411,3.411,0,0,0,4118.8,917.467Z" transform="translate(-4110.842 -912.919)" fill="#fff"/>
          <path id="Path_201" data-name="Path 201" d="M4111.515,918.143a4.548,4.548,0,1,1,4.549-4.548A4.554,4.554,0,0,1,4111.515,918.143Zm0-6.823a2.274,2.274,0,1,0,2.275,2.274A2.276,2.276,0,0,0,4111.515,911.32Z" transform="translate(-4106.966 -909.046)" fill="#3b424f"/>
        </g>
      </g>
      <g id="Group_262" data-name="Group 262" transform="translate(0 47.873)">
        <g id="Group_261" data-name="Group 261" transform="translate(1.552 1.138)">
          <path id="Path_202" data-name="Path 202" d="M3870.884,1119.6a9.248,9.248,0,0,0,2.932-1.695l2.252,1.3,3.094-5.372-2.25-1.3a9.044,9.044,0,0,0,0-3.394l2.25-1.3-3.094-5.372-2.252,1.3a9.255,9.255,0,0,0-2.932-1.695v-2.608H3864.7v2.608a9.253,9.253,0,0,0-2.932,1.695l-2.252-1.3-3.094,5.372,2.251,1.3a8.99,8.99,0,0,0,0,3.394l-2.251,1.3,3.094,5.372,2.252-1.3a9.246,9.246,0,0,0,2.932,1.695v2.609h6.187Zm-6.5-8.762a3.411,3.411,0,1,1,3.412,3.411A3.411,3.411,0,0,1,3864.38,1110.833Z" transform="translate(-3856.42 -1099.462)" fill="#1175bb"/>
        </g>
        <path id="Path_203" data-name="Path 203" d="M3866.735,1119.466h-8.462v-2.975a10.284,10.284,0,0,1-1.893-1.094l-2.57,1.487-4.229-7.342,2.566-1.485a9.888,9.888,0,0,1,0-2.2l-2.566-1.484,4.229-7.342,2.57,1.487a10.313,10.313,0,0,1,1.893-1.094v-2.976h8.462v2.976a10.327,10.327,0,0,1,1.893,1.094l2.57-1.487,4.229,7.342-2.566,1.484a9.888,9.888,0,0,1,0,2.2l2.566,1.485-4.229,7.342-2.57-1.487a10.3,10.3,0,0,1-1.893,1.094Zm-6.188-2.275h3.914v-2.275l.757-.268a8.079,8.079,0,0,0,2.571-1.486l.613-.525,1.964,1.136,1.958-3.4-1.962-1.136.145-.788a7.943,7.943,0,0,0,0-2.984l-.145-.788,1.962-1.135-1.958-3.4-1.964,1.136-.613-.525a8.079,8.079,0,0,0-2.571-1.487l-.757-.268v-2.274h-3.914V1099l-.756.268a8.076,8.076,0,0,0-2.572,1.487l-.612.525-1.964-1.136-1.958,3.4,1.962,1.135-.145.788a7.89,7.89,0,0,0,0,2.984l.145.788-1.962,1.136,1.958,3.4,1.964-1.136.612.525a8.085,8.085,0,0,0,2.571,1.486l.757.268Zm1.957-5.685a4.549,4.549,0,1,1,4.548-4.548A4.554,4.554,0,0,1,3862.5,1111.506Zm0-6.823a2.274,2.274,0,1,0,2.274,2.275A2.277,2.277,0,0,0,3862.5,1104.683Z" transform="translate(-3849.581 -1094.449)" fill="#3b424f"/>
      </g>
    </g>
  </g>
</svg>
