<svg id="suitcase" xmlns="http://www.w3.org/2000/svg" width="16.356" height="13.63" viewBox="0 0 16.356 13.63">
  <path id="Path_172" data-name="Path 172" d="M12.77,5.067a.682.682,0,0,1-.681-.681V3.363H9.363V4.385A.681.681,0,0,1,8,4.385V3.363A1.364,1.364,0,0,1,9.363,2h2.726a1.364,1.364,0,0,1,1.363,1.363V4.385A.682.682,0,0,1,12.77,5.067Z" transform="translate(-2.548 -2)" fill="#1175bb"/>
  <path id="Path_173" data-name="Path 173" d="M8.662,14.182a1.4,1.4,0,0,1-.484.082,1.493,1.493,0,0,1-.525-.1L0,11.62v5.2a1.873,1.873,0,0,0,1.874,1.874H14.482a1.873,1.873,0,0,0,1.874-1.874v-5.2Z" transform="translate(0 -5.064)" fill="#1175bb"/>
  <path id="Path_174" data-name="Path 174" d="M16.356,6.874V8.435L8.341,11.106a.5.5,0,0,1-.327,0L0,8.435V6.874A1.873,1.873,0,0,1,1.874,5H14.482A1.873,1.873,0,0,1,16.356,6.874Z" transform="translate(0 -2.956)" fill="#1175bb"/>
</svg>
