<svg id="telephone" xmlns="http://www.w3.org/2000/svg" width="14.065" height="13.565" viewBox="0 0 14.065 13.565">
  <g id="Group_233" data-name="Group 233">
    <g id="Group_232" data-name="Group 232" transform="translate(0)">
      <path id="Path_175" data-name="Path 175" d="M13.526,11.722a6.113,6.113,0,0,0-2.661-1.887A10.413,10.413,0,0,0,3.21,9.823,6.11,6.11,0,0,0,.543,11.7,2.413,2.413,0,0,0,.109,13.92a1.162,1.162,0,0,0,1.114.8l1.757,0h0a1.174,1.174,0,0,0,.9-.421,1.155,1.155,0,0,0,.252-.949q0-.015-.006-.03l-.092-.359a7.168,7.168,0,0,1,3-.709,7.358,7.358,0,0,1,3,.723l-.094.357q0,.015-.007.031a1.155,1.155,0,0,0,.249.95,1.174,1.174,0,0,0,.9.424l1.757,0h0a1.162,1.162,0,0,0,1.114-.8A2.415,2.415,0,0,0,13.526,11.722Z" transform="translate(0 -9.1)" fill="#1175bb"/>
    </g>
  </g>
  <g id="Group_235" data-name="Group 235" transform="translate(1.468 4.939)">
    <g id="Group_234" data-name="Group 234">
      <path id="Path_176" data-name="Path 176" d="M62.969,191.388l-1.31-1.376a.42.42,0,0,0-.3-.13h-.847v-.572a.42.42,0,0,0-.839,0v.572H58.325v-.572a.42.42,0,0,0-.839,0v.572h-.847a.42.42,0,0,0-.3.13l-1.31,1.376a5.75,5.75,0,0,0-1.593,3.982V197.1a.42.42,0,0,0,.42.42h10.29a.42.42,0,0,0,.42-.42V195.37A5.75,5.75,0,0,0,62.969,191.388ZM59,195.982a2.2,2.2,0,1,1,2.2-2.2A2.2,2.2,0,0,1,59,195.982Z" transform="translate(-53.432 -188.89)" fill="#1175bb"/>
    </g>
  </g>
  <g id="Group_237" data-name="Group 237" transform="translate(5.676 8.477)">
    <g id="Group_236" data-name="Group 236">
      <path id="Path_177" data-name="Path 177" d="M207.96,317.691a1.357,1.357,0,1,0,1.357,1.357A1.359,1.359,0,0,0,207.96,317.691Z" transform="translate(-206.603 -317.691)" fill="#1175bb"/>
    </g>
  </g>
</svg>
