<svg id="Component_1_1" data-name="Component 1 – 1" xmlns="http://www.w3.org/2000/svg" width="11.379" height="13.639" viewBox="0 0 11.379 13.639">
  <g id="Group_230" data-name="Group 230">
    <path id="Path_170" data-name="Path 170" d="M132.316,6.57a3.179,3.179,0,0,0,2.323-.962,3.178,3.178,0,0,0,.962-2.323,3.179,3.179,0,0,0-.962-2.323,3.284,3.284,0,0,0-4.645,0,3.179,3.179,0,0,0-.962,2.323,3.178,3.178,0,0,0,.963,2.323A3.179,3.179,0,0,0,132.316,6.57Z" transform="translate(-126.713 0)" fill="#1175bb"/>
    <path id="Path_171" data-name="Path 171" d="M53.351,251.215a8.111,8.111,0,0,0-.111-.862,6.785,6.785,0,0,0-.212-.866,4.277,4.277,0,0,0-.356-.808,3.048,3.048,0,0,0-.537-.7,2.369,2.369,0,0,0-.772-.485,2.667,2.667,0,0,0-.985-.178,1,1,0,0,0-.534.226c-.16.1-.347.225-.556.359a3.185,3.185,0,0,1-.72.317,2.8,2.8,0,0,1-1.76,0,3.18,3.18,0,0,1-.719-.317c-.207-.132-.394-.253-.557-.359a1,1,0,0,0-.534-.226,2.663,2.663,0,0,0-.985.178,2.366,2.366,0,0,0-.772.485,3.05,3.05,0,0,0-.537.7,4.29,4.29,0,0,0-.356.808,6.808,6.808,0,0,0-.212.866,8.085,8.085,0,0,0-.111.862c-.018.261-.027.532-.027.805a2.265,2.265,0,0,0,.673,1.713,2.421,2.421,0,0,0,1.733.632h6.567a2.421,2.421,0,0,0,1.733-.632,2.264,2.264,0,0,0,.673-1.714C53.379,251.746,53.369,251.475,53.351,251.215Z" transform="translate(-42 -240.728)" fill="#1175bb"/>
  </g>
</svg>
